<svg width="309" height="94" viewBox="0 0 309 94" fill="none" xmlns="http://www.w3.org/2000/svg">
<path d="M73.8149 43.0536C73.7856 42.2065 73.4534 41.9054 72.3044 41.9054C68.0153 41.9368 68.9513 37.0387 66.8683 37.0387C63.7889 37.0387 61.7937 43.3882 61.7937 45.9585C61.7937 49.3445 63.5152 51.5823 65.9616 51.5823C70.1003 51.5823 73.8755 46.5023 73.8149 43.0557M0 39.8182C0 43.7186 2.77861 46.3789 6.25082 46.3789C9.72304 46.3789 12.4724 43.476 12.1695 39.6069C11.8373 35.284 14.0414 32.653 16.2768 32.653C18.1194 32.653 18.9342 34.1045 18.9342 35.7379C18.9342 47.1966 5.49454 49.7356 5.49454 58.5341C5.49454 61.5269 7.5482 63.7647 10.2976 63.7647C14.0435 63.7647 16.398 60.9518 19.327 51.9734C20.9586 47.0147 24.974 39.8182 28.8704 39.8182C29.564 39.8182 30.1385 40.6652 30.1385 41.6314C30.1385 47.9495 21.2887 53.9372 21.2887 59.2577C21.2887 62.1292 23.3716 63.7626 25.91 63.7626C31.0452 63.7626 33.4916 58.6533 34.4276 52.1825C35.3029 46.2262 39.7738 39.8161 42.613 39.8161C43.4883 39.8161 44.1235 40.6924 44.1235 41.8719C44.1235 49.0684 36.03 54.9934 36.03 64.8794C36.03 71.53 41.4054 78.7872 51.4022 78.7872C55.9315 78.7872 59.3452 76.7021 59.3452 72.7702C59.3452 68.5665 54.9663 66.7847 51.7051 65.6658C47.7795 64.3356 45.6653 61.1609 45.6653 56.8066C45.6653 50.0639 54.6655 44.1997 54.6655 34.5248C54.6655 31.3501 53.0338 29.3235 50.7399 29.3235C47.6291 29.3235 44.0044 32.2557 41.4368 35.0979C40.6826 35.9135 40.4402 35.7943 40.4402 34.6754C40.411 32.0152 39.2013 29.3235 36.7863 29.3235C32.4366 29.3235 28.722 32.1051 26.215 34.826C25.5507 35.5517 25.3083 35.4304 25.2477 34.4328C24.9448 30.0179 21.7755 26.3914 16.2768 26.3914C7.94306 26.3956 0 33.0755 0 39.8182ZM52.4008 52.9103C52.4008 45.0195 60.5548 29.3277 71.6693 29.3277C76.441 29.3277 77.2265 34.1965 80.1263 34.1965C81.6973 34.1965 82.9655 32.5945 82.9655 31.1117C82.9655 28.7233 80.1263 27.3032 80.1263 23.4321C80.1263 19.5609 82.8443 15.995 86.9224 15.995C90.6077 15.995 92.4503 18.9586 92.4503 21.92C92.4503 25.3959 90.3068 27.2405 90.3068 28.8132C90.3068 29.9614 91.0318 30.4759 91.8779 30.4759C93.5095 30.4759 95.1704 29.2357 97.1029 29.2357C99.0354 29.2357 100.456 30.4445 100.456 32.5924C100.456 38.2768 90.217 43.9905 90.217 49.0705C90.217 50.4927 91.0318 51.5802 92.3313 51.5802C94.5667 51.5802 98.9748 44.0512 102.478 39.0318C106.465 33.3474 111.207 29.3277 117.429 29.3277C119.514 29.3277 121.296 30.204 122.503 31.5049C123.197 32.2599 123.681 32.2912 124.375 31.5655C125.735 30.1747 127.517 29.3277 129.571 29.3277C131.867 29.3277 133.135 30.8084 133.135 32.4732C133.135 36.6142 127.82 37.7038 123.652 49.2525C122.173 53.3035 120.541 61.9201 117.581 69.721C117.22 70.6893 117.55 71.3544 118.517 71.6555C126.853 74.2551 135.46 76.9761 142.739 76.9761C157.629 76.9761 164.153 67.1193 173.093 67.1193C177.743 67.1193 180.16 69.8402 180.16 73.3182C180.16 79.5778 171.432 90.2794 154.125 90.2794C139.325 90.2794 126.671 83.0223 115.285 77.8523C114.439 77.4592 113.775 77.6704 113.261 78.4881C106.496 88.7674 95.7429 93.9979 87.921 93.9979C79.3742 93.9979 74.1178 89.9469 74.1178 83.0223C74.1178 76.0977 82.0608 67.0586 97.6754 67.0586C100.968 67.0586 104.682 67.7551 108.669 68.782C109.544 69.0246 110.208 68.7506 110.572 67.9057C111.69 65.5173 112.655 62.8863 113.561 60.0441C113.983 58.6826 113.472 58.4107 112.473 59.4397C109.845 62.01 106.705 63.7626 103.955 63.7626C99.424 63.7626 97.7339 59.9834 97.8237 56.1436C97.855 54.9348 97.4915 54.7821 96.7373 55.7212C93.3236 59.8036 88.7943 63.7626 84.4154 63.7626C80.8512 63.7626 78.8581 61.163 78.8581 57.685C78.8581 48.8572 88.6731 44.5636 88.6731 37.8502C88.6731 36.61 88.0693 35.6437 86.891 35.6437C84.5344 35.6437 80.0343 39.8475 79.4619 44.0177C77.9828 54.8721 68.7402 63.7605 61.7331 63.7605C55.5722 63.7605 52.4008 59.3163 52.4008 52.9061M87.6766 78.302C87.6766 80.1466 89.2476 81.7486 93.1439 81.7486C98.369 81.7486 102.416 79.6028 105.618 75.9136C106.373 75.0373 106.101 74.1903 105.015 73.8578C102.386 73.1321 99.8189 72.6782 97.2826 72.6782C91.1822 72.6782 87.6786 75.7317 87.6786 78.302M106.465 48.3385C106.465 50.0618 107.461 51.5739 109.304 51.5739C114.378 51.5739 118.454 45.7075 118.454 41.1734C118.454 39.0255 117.368 37.5155 115.646 37.5155C110.693 37.5155 106.465 44.802 106.465 48.3385ZM126.065 54.9306C126.065 43.018 139.143 29.3214 148.083 29.3214C151.225 29.3214 153.126 31.6492 153.126 34.3094C153.126 41.7464 146.451 46.9478 140.32 46.9478C139.595 46.9478 138.901 46.8578 138.205 46.7052C137.088 46.4333 136.181 47.0377 136.634 48.2779C137.33 50.1831 138.93 51.5739 141.889 51.5739C147.596 51.5739 154.031 47.0398 155.207 43.0473C156.174 39.9625 155.993 37.6348 155.993 36.0641C155.993 32.8894 159.133 29.3214 163.543 29.3214C166.2 29.3214 167.771 30.3797 167.771 32.9186C167.771 33.4624 167.682 34.0982 167.529 34.7633C167.318 35.7316 167.801 35.6709 168.737 34.7026C171.847 31.4672 174.988 29.3214 179.005 29.3214C181.512 29.3214 182.809 31.1054 182.809 33.2826C182.809 38.6951 174.777 43.8337 174.171 48.853C173.989 50.3044 175.017 51.5739 176.738 51.5739C179.759 51.5739 182.991 48.3699 184.078 46.222C185.709 43.018 186.01 39.54 186.01 36.0641C186.01 32.8894 189.092 29.3214 193.56 29.3214C196.611 29.3214 197.789 31.256 197.789 33.0713C197.789 33.6465 197.728 34.2509 197.638 34.826C197.488 35.7023 197.971 35.4911 198.877 34.4642C201.566 31.4107 204.796 29.3235 207.303 29.3235C210.203 29.3235 211.139 31.9545 211.229 34.4935C211.26 35.6416 211.651 35.855 212.497 35.0372C215.215 32.4063 219.564 29.3235 222.796 29.3235C224.911 29.3235 226.21 30.8042 226.21 33.3453C226.21 40.6317 219.746 44.5615 219.746 49.0663C219.746 50.4885 220.44 51.576 221.649 51.576C223.885 51.576 225.817 47.0419 227.992 42.8988C232.189 35.3698 239.349 29.3235 245.238 29.3235C248.38 29.3235 250.282 31.6513 250.282 34.3115C250.282 41.7485 243.607 46.9498 237.475 46.9498C236.75 46.9498 236.054 46.8599 235.361 46.7072C234.243 46.4354 233.336 47.0398 233.79 48.28C234.483 50.1852 236.086 51.576 239.044 51.576C248.527 51.576 257.619 38.877 257.619 29.3235C257.619 24.8187 253.662 21.0081 245.75 21.0081C230.771 21.0081 219.082 25.0299 211.621 25.0299C201.896 25.0299 198.09 20.9475 198.09 18.5591C198.09 12.4815 206.275 8.27988 220.561 8.27988C236.869 8.27988 248.708 17.8334 257.257 17.8334C262.996 17.8334 264.415 10.5177 266.379 6.7678C268.403 2.89662 272.782 -0.00415039 276.375 -0.00415039C278.732 -0.00415039 280.483 1.77981 280.483 4.50072C280.483 10.4257 273.779 14.0542 273.779 17.6828C273.779 18.7703 274.654 19.8286 276.436 19.8286C280.029 19.8286 291.175 14.7799 298.362 14.7799C305.097 14.7799 308.994 16.9257 308.994 20.4037C308.994 24.3335 304.705 26.7532 296.49 26.7532C289.604 26.7532 282.9 24.3335 277.704 24.3335C267.133 24.3335 259.008 39.814 259.008 46.7072C259.008 49.6101 259.823 51.576 261.394 51.576C263.326 51.576 265.411 48.6125 267.887 44.0177C271.391 37.457 278.759 29.3235 285.858 29.3235C289 29.3235 290.901 31.6513 290.901 34.3115C290.901 41.7485 284.226 46.9498 278.095 46.9498C277.37 46.9498 276.676 46.8599 275.98 46.7072C274.863 46.4354 273.956 47.0398 274.409 48.28C275.105 50.1852 276.705 51.576 279.664 51.576C284.135 51.576 288.543 47.3137 290.778 44.5322C293.195 41.5394 295.036 43.4739 293.346 46.5588C289.238 54.1171 281.024 63.7626 272.717 63.7626C268.307 63.7626 265.71 61.3742 265.167 56.8401C265.017 55.6919 264.714 55.5999 264.11 56.5368C262.027 59.8621 258.281 63.7626 252.392 63.7626C248.587 63.7626 246.17 61.0103 245.596 57.5951C245.414 56.4155 244.871 56.175 243.995 57.0199C239.978 60.8597 235.509 63.7626 232.095 63.7626C228.895 63.7626 226.235 61.5562 225.33 58.5927C224.998 57.5051 224.576 57.3525 223.851 58.2288C221.133 61.4328 218.023 63.7626 215.123 63.7626C211.559 63.7626 209.626 61.1316 209.626 57.6557C209.626 50.0075 216.211 45.4712 216.211 41.1776C216.211 40.4811 215.729 39.8161 214.912 39.8161C212.043 39.8161 207.119 45.3499 205.851 50.8817C204.28 57.685 202.529 63.7605 197.787 63.7605C195.159 63.7605 193.226 62.1271 193.226 59.105C193.226 53.9351 201.23 47.9474 201.23 41.6293C201.23 40.661 200.595 39.8161 199.659 39.8161C196.065 39.8161 190.537 47.2845 190.537 54.1463C190.537 60.4645 187.184 63.7605 183.229 63.7605C180.269 63.7605 179.001 61.7946 178.85 59.4062C178.79 58.3166 178.518 58.166 177.733 58.9524C175.105 61.6733 171.873 63.7605 168.522 63.7605C165.17 63.7605 162.814 60.7677 162.814 57.8941C162.814 50.1539 171.089 45.7996 171.089 41.0228C171.089 40.2364 170.667 39.814 170.214 39.814C167.224 39.814 159.764 47.1318 159.764 54.1443C159.764 61.1567 155.928 63.7584 152.032 63.7584C148.135 63.7584 147.17 60.2825 148.378 56.7752C148.741 55.717 148.62 55.5957 147.834 56.382C143.485 60.523 138.442 63.7584 134.637 63.7584C129.654 63.7584 126.059 60.4017 126.059 54.9306M138.623 41.8991C139.53 42.2316 140.495 42.3822 141.312 42.3822C143.819 42.3822 145.933 41.0521 145.933 38.4211C145.933 37.2416 145.148 36.244 143.729 36.244C141.433 36.244 139.411 37.7853 138.022 39.8725C137.478 40.7196 137.689 41.5352 138.625 41.8991M235.787 41.8991C236.693 42.2316 237.659 42.3822 238.476 42.3822C240.983 42.3822 243.097 41.0521 243.097 38.4211C243.097 37.2416 242.311 36.244 240.893 36.244C238.597 36.244 236.574 37.7853 235.185 39.8725C234.642 40.7196 234.853 41.5352 235.789 41.8991M276.411 41.8991C277.318 42.2316 278.283 42.3822 279.1 42.3822C281.607 42.3822 283.721 41.0521 283.721 38.4211C283.721 37.2416 282.935 36.244 281.517 36.244C279.221 36.244 277.199 37.7853 275.809 39.8725C275.266 40.7196 275.477 41.5352 276.413 41.8991" fill="#F1B131"/>
</svg>
